<svg width="1204" height="499" viewBox="0 0 1204 499" fill="none" xmlns="http://www.w3.org/2000/svg">
<g clip-path="url(#clip0_930_10216)">
<path d="M322.166 -194.304C599.215 -80.0671 854.17 247.77 765.877 302.423C707.989 338.249 423.631 241.64 339.686 223.449C225.22 198.627 457.204 225.638 533.834 192.619C624.887 153.38 662.426 -17.4662 877.208 86.8198C1064.64 177.844 1053.53 265.332 1201.44 312.823C1335.22 355.754 1485.03 329.436 1590.13 300.723" stroke="#C7C7C7" stroke-opacity="0.1" stroke-miterlimit="10"/>
<path d="M312.758 -187.801C578.107 -77.088 826.774 238.734 747.258 293.279C695.144 329.008 424.461 238.521 346.562 221.927C238.579 198.908 461.618 223.279 536.263 191.501C625.731 153.386 663.36 -9.54943 872.418 90.0269C1058.96 178.798 1044.02 267.088 1192.82 315.998C1326.58 359.728 1479.54 335.081 1586.67 307.701" stroke="#C7C7C7" stroke-opacity="0.1" stroke-miterlimit="10"/>
<path d="M303.5 -181.334C557.008 -73.9929 799.086 230.021 728.397 284.438C682.084 320.042 425.267 235.524 353.48 220.466C252.057 199.147 466.041 220.975 538.725 190.412C626.625 153.39 664.536 -1.72611 867.716 93.202C1053.3 179.75 1034.39 269.175 1184.29 319.302C1317.89 364.018 1474.19 340.765 1583.42 314.642" stroke="#C7C7C7" stroke-opacity="0.1" stroke-miterlimit="10"/>
<path d="M294.385 -174.814C535.909 -70.6719 771.102 221.734 709.239 275.995C668.767 311.419 426.008 232.744 360.399 219.156C265.606 199.403 470.474 218.792 541.19 189.428C627.691 153.5 665.93 6.04583 863.116 96.4027C1047.66 180.756 1024.79 271.38 1175.77 322.792C1309.37 368.324 1468.93 346.562 1580.3 321.601" stroke="#C7C7C7" stroke-opacity="0.1" stroke-miterlimit="10"/>
<path d="M285.37 -168.322C514.912 -67.173 742.796 213.812 689.796 267.9C655.192 303.106 426.713 230.127 367.372 217.901C279.239 199.73 474.879 216.724 543.633 188.527C628.687 153.642 667.502 13.7534 858.537 99.6096C1042 181.791 1015.29 273.709 1167.36 326.516C1300.91 372.887 1463.84 352.475 1577.34 328.592" stroke="#C7C7C7" stroke-opacity="0.1" stroke-miterlimit="10"/>
<path d="M276.559 -161.832C493.897 -63.4971 714.237 206.319 670.096 260.193C641.39 295.12 427.401 227.702 374.339 216.799C293.041 200.088 479.344 214.771 546.11 187.721C629.766 153.839 669.325 21.4159 854.086 102.862C1036.36 182.898 1005.78 276.332 1158.98 330.507C1292.54 377.744 1458.93 358.571 1574.56 335.68" stroke="#C7C7C7" stroke-opacity="0.1" stroke-miterlimit="10"/>
<path d="M267.919 -155.326C472.913 -59.6088 685.444 199.17 650.141 252.922C627.368 287.498 427.954 225.452 381.307 215.826C306.881 200.456 483.77 212.948 548.572 187.029C630.878 154.104 671.352 29.0001 849.643 106.131C1030.72 184.049 996.25 279.212 1150.63 334.802C1284.16 382.882 1453.94 364.859 1571.9 342.865" stroke="#C7C7C7" stroke-opacity="0.1" stroke-miterlimit="10"/>
<path d="M259.436 -148.834C451.971 -55.5026 656.342 192.514 629.949 246.095C613.128 280.262 428.677 223.492 388.3 215.023C320.805 200.869 488.24 211.279 551.155 186.469C632.199 154.43 673.52 36.7136 845.493 109.478C1025.06 185.457 986.946 282.451 1142.55 339.491C1276.18 388.483 1449.37 371.439 1569.59 350.225" stroke="#C7C7C7" stroke-opacity="0.1" stroke-miterlimit="10"/>
<path d="M251.165 -142.34C431.137 -51.1191 626.939 186.328 609.502 239.747C598.53 273.388 429.345 221.767 395.288 214.367C334.901 201.255 492.694 209.75 553.542 186.008C633.288 154.866 675.799 44.2265 841.203 112.845C1019.41 186.8 977.524 286.039 1134.3 344.577C1267.97 394.488 1444.69 378.316 1567.2 357.768" stroke="#C7C7C7" stroke-opacity="0.1" stroke-miterlimit="10"/>
<path d="M243.105 -135.845C410.391 -46.4615 597.248 180.634 588.846 233.929C583.653 266.943 429.999 220.301 402.269 213.904C349.116 201.635 497.078 208.364 556.025 185.693C634.598 155.389 678.623 51.7665 837.195 116.339C1013.97 188.308 968.324 290.128 1126.31 350.233C1260.08 401.116 1440.35 385.642 1565.2 365.642" stroke="#C7C7C7" stroke-opacity="0.1" stroke-miterlimit="10"/>
<path d="M235.464 -129.353C389.927 -41.4549 567.257 175.431 568.019 228.602C568.471 260.85 430.846 219.037 409.203 213.479C363.599 201.762 501.534 207.072 558.467 185.448C635.933 155.967 681.569 59.3528 833.08 119.928C1008.3 189.989 958.865 294.695 1118.08 356.483C1251.94 408.397 1435.74 393.562 1562.96 374.016" stroke="#C7C7C7" stroke-opacity="0.1" stroke-miterlimit="10"/>
<path d="M228.572 -122.851C370.034 -36.1033 537.143 170.625 547.188 223.642C553.114 254.941 430.597 219.08 416.596 212.975C377.111 205.046 506.419 205.762 561.353 185.263C637.799 156.664 685.331 67.1404 829.618 123.889C1003.18 192.136 949.897 299.972 1110.24 363.591C1244.15 416.703 1431.53 402.472 1561.16 383.38" stroke="#C7C7C7" stroke-opacity="0.1" stroke-miterlimit="10"/>
<path d="M221.626 -116.355C349.998 -30.3776 506.424 166.421 526.045 219.33C537.27 249.579 431.096 218.38 423.715 212.753C391.404 205.785 511.167 204.689 564.003 185.234C639.511 157.435 688.984 74.8631 826.026 127.828C997.893 194.285 940.838 305.82 1102.4 371.36C1236.4 425.724 1427.38 411.843 1559.46 392.989" stroke="#C7C7C7" stroke-opacity="0.1" stroke-miterlimit="10"/>
<path d="M219.386 -109.863C333.793 -24.645 477.156 160.489 506.239 212.605C522.242 241.3 433.088 214.203 432.492 209.008C407.458 202.725 517.501 201.026 568.375 183.456C643.177 157.605 695.3 83.8074 824.394 133.489C993.773 198.673 932.093 311.814 1094.11 379.782C1227.62 435.79 1422.16 424.2 1556.61 407.022" stroke="#C7C7C7" stroke-opacity="0.1" stroke-miterlimit="10"/>
<path d="M220.034 -103.373C319.949 -19.1444 448.813 153.197 487.456 204.212C507.846 231.134 436.163 207.951 442.221 203.218C424.54 197.547 524.826 195.913 573.752 180.625C648.021 157.417 703.025 93.444 823.815 140.039C990.264 204.259 923.422 317.459 1085.39 388.087C1218.03 445.942 1415.94 437.849 1552.88 423.331" stroke="#C7C7C7" stroke-opacity="0.1" stroke-miterlimit="10"/>
<path d="M220.769 -96.8767C306.183 -13.7321 420.227 145.957 468.793 195.909C493.346 221.133 439.322 201.92 452.133 197.718C441.768 192.706 532.37 191.086 579.243 178.074C652.992 157.602 710.798 103.194 823.297 146.709C986.826 209.951 914.829 323.197 1076.72 396.473C1208.51 456.135 1409.75 451.542 1549.11 439.671" stroke="#C7C7C7" stroke-opacity="0.1" stroke-miterlimit="10"/>
<path d="M221.508 -90.3845C292.457 -8.38226 391.208 138.794 450.286 187.724C478.808 211.358 442.6 196.139 462.115 192.49C459.076 188.186 540.05 186.555 584.827 175.691C658.135 157.91 718.578 112.954 822.85 153.352C983.446 215.61 906.329 328.879 1068.06 404.796C1198.98 466.244 1403.55 465.133 1545.3 455.866" stroke="#C7C7C7" stroke-opacity="0.1" stroke-miterlimit="10"/>
<path d="M222.321 -83.8845C278.805 -3.12547 362.122 131.829 431.938 179.626C464.34 201.801 445.979 190.559 472.206 187.517C476.481 183.965 547.917 182.288 590.425 173.47C663.402 158.428 726.314 122.749 822.316 160.05C980.006 221.324 897.767 334.623 1059.32 413.145C1189.37 476.354 1397.22 478.723 1541.34 472.05" stroke="#C7C7C7" stroke-opacity="0.1" stroke-miterlimit="10"/>
<path d="M223.203 -77.3867C265.232 2.07626 333.015 125.086 413.747 171.609C449.991 192.494 451.822 187.352 482.396 182.801C495.138 180.9 555.952 178.256 596.298 171.49C669.003 159.227 734.236 132.611 822.017 166.802C976.815 227.082 889.439 340.383 1050.76 421.512C1179.95 486.477 1391.03 492.279 1537.52 488.193" stroke="#C7C7C7" stroke-opacity="0.1" stroke-miterlimit="10"/>
<path d="M224.129 -70.8613C251.748 7.2314 304.12 118.635 395.812 163.722C436.018 183.503 454.205 181.172 492.837 178.379C512.219 176.974 564.202 174.637 602.278 169.706C674.836 160.323 742.171 142.559 821.771 173.604C973.713 232.878 881.205 346.202 1042.28 429.912C1170.6 496.609 1384.84 505.846 1533.66 504.307" stroke="#C7C7C7" stroke-opacity="0.1" stroke-miterlimit="10"/>
<path d="M225.085 -64.4041C238.309 12.2581 275.568 112.339 377.822 155.785C422.108 174.605 457.191 175.488 503.118 174.063C529.424 173.24 572.355 171.114 608.107 167.971C680.604 161.591 749.975 152.381 821.333 180.289C970.572 238.474 872.998 351.82 1033.56 438.164C1161.15 506.528 1378.4 519.221 1529.55 520.237" stroke="#C7C7C7" stroke-opacity="0.1" stroke-miterlimit="10"/>
<path d="M226.177 -57.908C225.002 17.2303 247.539 106.242 360.141 147.952C505.55 201.868 682.274 132.865 821.06 187.132C967.375 244.357 864.572 357.69 1024.95 446.532C1151.5 516.66 1372 532.723 1525.44 536.272" stroke="#C7C7C7" stroke-opacity="0.1" stroke-miterlimit="10"/>
</g>
<defs>
<clipPath id="clip0_930_10216">
<rect width="1204" height="499" fill="white"/>
</clipPath>
</defs>
</svg>
